<svg xmlns="http://www.w3.org/2000/svg" baseProfile="tiny" width="575" height="150" viewBox="0 0 575 150"><g fill="#007AFF"><path d="M458.74 37.905l-5.981 1.319-1.847 5.84 4.134 4.519 5.98-1.317 1.847-5.84-4.133-4.521zm-1.847 8.27c-1.343 0-2.431-1.088-2.431-2.431 0-1.341 1.088-2.43 2.431-2.43s2.431 1.089 2.431 2.43c-.001 1.343-1.089 2.431-2.431 2.431zM463.916 54.931l-2.727-.977-2.209 1.871.516 2.849 2.726.979 2.21-1.872-.516-2.85zm-2.822 2.844c-.538-.339-.698-1.048-.359-1.585.338-.537 1.045-.699 1.583-.36.537.34.701 1.048.359 1.584-.338.538-1.045.699-1.583.361zM448.168 50.993l-3.163 2.104.243 3.792 3.402 1.685 3.162-2.104-.24-3.791-3.404-1.686zm.786 5.196c-.774.301-1.649-.085-1.952-.861-.3-.775.087-1.647.861-1.949.778-.301 1.65.083 1.952.86.301.777-.083 1.652-.861 1.95zM7 111v-47h25.182c8.931 0 13.501 5.871 13.501 12.127 0 5.838-3.656 9.934-8.087 10.847 5.063.772 9.001 5.543 9.001 11.382 0 7.103-4.641 12.644-13.642 12.644h-25.955zm28.486-33.001c0-2.883-2.109-4.999-5.485-4.999h-13.001v10h13.001c3.376 0 5.485-1.977 5.485-5.001zm.914 19.001c0-2.953-2.109-5-5.977-5h-13.423v10h13.424c3.727 0 5.976-1.624 5.976-5zM55 111v-47h10v47h-10zM88 111v-38h-14v-9h37v9h-13v38h-10zM161 111v-33.571l-13.577 33.571h-4.36l-13.063-33.571v33.571h-10v-47h13.851l11.393 29.324 11.391-29.324h14.365v47h-10zM216.659 111l-2.953-8h-20.112l-2.953 8h-11.321l18.074-47h12.516l18.072 47h-11.323zm-13.009-36.183l-7.314 20.183h14.629l-7.315-20.183zM264.448 111l-13.998-18.719-3.45 4.555v14.164h-10v-47h10v21.233l16.183-21.233h12.306l-18.634 22.058 19.899 24.942h-12.306zM285 111v-47h34v9h-24v10h23v9h-23v10h24v9h-34zM353.698 111l-9.21-16h-7.488v16h-10v-47h22.129c9.773 0 15.82 6.575 15.82 15.293 0 8.227-5.273 12.688-10.338 13.884l10.619 17.823h-11.532zm.984-31.57c0-3.868-3.024-6.43-6.961-6.43h-10.721v13h10.721c3.936 0 6.961-2.562 6.961-6.57zM396 111v-47h10v38h20v9h-30zM484 111v-47h24.591c8.931 0 13.501 5.871 13.501 12.127 0 5.838-3.657 9.934-8.085 10.847 5.061.772 9.001 5.543 9.001 11.382 0 7.103-4.64 12.644-13.642 12.644h-25.366zm27.896-33.001c0-2.883-2.108-4.999-5.482-4.999h-12.414v10h12.413c3.374 0 5.483-1.977 5.483-5.001zm.916 19.001c0-2.953-2.112-5-5.979-5h-12.833v10h12.833c3.729 0 5.979-1.624 5.979-5zM528.755 104.642l5.486-7.806c3.304 3.447 8.436 6.399 14.904 6.399 5.557 0 8.16-2.463 8.16-5.204 0-8.156-27.006-2.461-27.006-20.111 0-7.804 6.753-14.274 17.791-14.274 7.457 0 13.644 2.251 18.284 6.541l-5.554 7.452c-3.8-3.514-8.86-5.132-13.644-5.132-4.218 0-6.608 1.827-6.608 4.641 0 7.382 26.931 2.391 26.931 19.899 0 8.581-6.188 15.048-18.775 15.048-9.072 0-15.54-3.023-19.969-7.453zM444.639 101.783c.057.014.142.217.263.217h21.082c.123 0 .208-.203.261-.217-.013-.041-.036-.358-.08-.432l-5.135-7.351h-11.172l-5.14 7.352c-.041.073-.066.39-.079.431zM477.804 98.679l.146-.087-11.95-16.783v-11.809h.221c1.486 0 2.695-1.514 2.695-3.001s-1.209-2.999-2.695-2.999h-21.556c-1.487 0-2.696 1.512-2.696 2.999s1.209 3.001 2.696 3.001h.335v11.807l-11.947 16.704-.041.168c-1.717 2.704-1.857 5.737-.438 8.319 1.42 2.584 4.22 4.002 7.421 4.002h30.894c3.205 0 5.966-1.418 7.386-4.002 1.419-2.582 1.243-5.615-.471-8.319zm-5.338 5.441c-.315.57-1.03.88-1.577.88h-30.894c-.547 0-1.263-.31-1.576-.88-.299-.543-.016-1.269.258-1.724l13.323-18.442v-12.954h7v12.954l13.266 18.442c.273.456.497 1.181.2 1.724z"/></g></svg>